<svg className="w-40 h-auto fill-white" xmlns="http://www.w3.org/2000/svg" viewBox="0 0 200 78">
<defs>
<style></style>
</defs>
<path class="cls-1" d="M148.68,32.05a10.61,10.61,0,1,1-.18-6.93H153a15.14,15.14,0,0,0-4.36-7.34,14.76,14.76,0,0,0-10.06-3.89,14.9,14.9,0,1,0,10.11,25.89,15.12,15.12,0,0,0,4.49-7.67h-4.54ZM172.36,14.4h-4.2l-14,28.82h4.95l11.15-23,5.28,10.88h-5.74l-2.07,4.24h9.83l3.79,7.91h4.94Zm-93.11-.05h25.46v4.23H79.25ZM89.71,43.16h4.54V22.25H89.71Zm-25-28.81H50.11V43.16h4.6V18.58H63.9c4.14,0,6.21,1.38,6.21,4.19,0,3.26-3.39,4.06-6.21,4.06H59.48v4.24h5.34a11.39,11.39,0,0,0,7-2.06,7.75,7.75,0,0,0,2.93-6.19C74.77,17.73,70.74,14.35,64.71,14.35ZM112,43.16h4.54V14.35H112ZM43.62,28.78A14.95,14.95,0,0,1,13.9,31.07h4.43a10.55,10.55,0,1,0,.06-4.81H14a15.05,15.05,0,0,1,4.6-8.42,14.77,14.77,0,0,1,10.11-3.95A15,15,0,0,1,43.62,28.78Z"/>
<polygon class="cls-1" points="89.71 60.39 91.5 60.39 91.5 55.54 96.75 55.54 96.75 54.02 91.5 54.02 91.5 50.7 97.33 50.7 97.33 49.16 89.71 49.16 89.71 60.39"/><path class="cls-1" d="M102.09,59.23c-1.52,0-2.19-1.27-2.19-2.9s.62-2.89,2.17-2.89,2.18,1.21,2.18,2.83S103.64,59.23,102.09,59.23Zm0,1.35c2.59,0,3.92-1.74,3.92-4.33,0-2.44-1.33-4.17-3.85-4.17s-3.92,1.75-3.92,4.27S99.48,60.58,102,60.58Z"/><path class="cls-1" d="M107.65,60.39h1.68V56.3c0-1.57.73-2.57,2.31-2.57l.38,0V52.1a1.61,1.61,0,0,0-.44,0,2.54,2.54,0,0,0-2.32,1.66c0-.43,0-1.2,0-1.49h-1.6c0,.64,0,1.46,0,1.78Z"/><path class="cls-1" d="M113.36,60.39H115V56c0-1.46.48-2.51,1.8-2.51,1.07,0,1.44.68,1.44,2v4.92h1.68V55.82c0-1.41.55-2.34,1.77-2.34,1,0,1.46.61,1.46,1.88v5h1.68v-5c0-2.1-.84-3.27-2.61-3.27a2.58,2.58,0,0,0-2.56,1.51,2.18,2.18,0,0,0-2.28-1.51A2.52,2.52,0,0,0,115,53.51c0-.4,0-1,0-1.24h-1.62c0,.64,0,1.46,0,1.78Z"/><path class="cls-1" d="M128.23,55.55a2.08,2.08,0,0,1,2.1-2.14c1.3,0,1.91.76,2,2.14Zm2.05,5a3.33,3.33,0,0,0,3.6-2.62h-1.62a1.8,1.8,0,0,1-1.9,1.3c-1.35,0-2.08-1-2.16-2.52H134a4.07,4.07,0,0,0,0-.54c0-2.47-1.2-4.12-3.66-4.12s-3.83,1.78-3.83,4.3S127.9,60.58,130.28,60.58Z"/><path class="cls-1" d="M135.65,60.39h1.68V56.3c0-1.57.73-2.57,2.32-2.57l.38,0V52.1a1.68,1.68,0,0,0-.45,0,2.53,2.53,0,0,0-2.31,1.66c0-.43,0-1.2,0-1.49h-1.6c0,.64,0,1.46,0,1.78Z"/><rect class="cls-1" x="141.46" y="49.16" width="1.66" height="11.22"/><path class="cls-1" d="M145.93,63.65c1.82,0,2.38-.87,3.12-3.09l2.84-8.29h-1.75c-.41,1.17-1.83,5.92-2,6.6-.19-.7-1.57-5.23-2-6.6h-1.84l3,8.51c-.33,1-.63,1.5-1.54,1.5-.17,0-.55,0-.77-.07v1.37A8,8,0,0,0,145.93,63.65Z"/><path class="cls-1" d="M164.89,59.87a6.22,6.22,0,0,1-8.69,0,5.79,5.79,0,0,1-1.79-4.26,5.87,5.87,0,0,1,1.79-4.28,6.27,6.27,0,0,1,8.69,0,5.91,5.91,0,0,1,1.8,4.28,5.8,5.8,0,0,1-1.8,4.26m-1.38-7.31a4.12,4.12,0,0,0-5.93,0,4.41,4.41,0,0,0,0,6.09,4.14,4.14,0,0,0,5.93,0,4.36,4.36,0,0,0,0-6.09"/><path class="cls-1" d="M168.82,58.34A2.06,2.06,0,0,0,171,59.92a1.65,1.65,0,0,0,1.82-1.71c0-1.12-.85-1.4-2-2-2-1-3.17-1.77-3.17-3.51a3.15,3.15,0,0,1,3.46-3.15c1.7,0,2.87.69,3.31,1.9l-1.46.75a1.93,1.93,0,0,0-1.71-1,1.45,1.45,0,0,0-1.64,1.45c0,1.11.9,1.44,2.19,2,2,.93,3,1.75,3,3.4,0,2.14-1.43,3.56-3.81,3.56A3.35,3.35,0,0,1,167.32,59Z"/><polygon class="cls-1" points="180.78 52.97 177.16 61.41 175.2 61.41 180.76 49.47 186.32 61.41 184.34 61.41 180.78 52.97"/><polygon class="cls-1" points="182.75 58.21 179.5 56.65 179.4 59.53 182.75 58.21"/></svg>